RBDS05runT35_grf
version=1
nRows=27
nColumns=19
inDegrees=no
endheader
time	ground_force_r_vx	ground_force_r_vy	ground_force_r_vz	ground_force_r_px	ground_force_r_py	ground_force_r_pz	ground_force_r_mx	ground_force_r_my	ground_force_r_mz	ground_force_l_vx	ground_force_l_vy	ground_force_l_vz	ground_force_l_px	ground_force_l_py	ground_force_l_pz	ground_force_l_mx	ground_force_l_my	ground_force_l_mz
     14.99900000	      0.00000000	      0.00000000	      0.00000000	      0.00000000	      0.00000000	      0.00000000	      0.00000000	      0.00000000	      0.00000000	    147.60181438	    458.03261227	     24.79671186	      1.98879654	      0.00000000	      0.98633423	     -0.00000000	      7.84724556	     -0.00000000
     15.00000000	      0.00000000	      0.00000000	      0.00000000	      0.00000000	      0.00000000	      0.00000000	      0.00000000	      0.00000000	      0.00000000	    145.36901619	    441.75471718	     23.90835988	      1.98621614	      0.00000000	      0.98651690	     -0.00000000	      7.74090055	     -0.00000000
     15.00100000	      0.00000000	      0.00000000	      0.00000000	      0.00000000	      0.00000000	      0.00000000	      0.00000000	      0.00000000	      0.00000000	    142.72182744	    426.08943890	     23.05877174	      1.98375072	      0.00000000	      0.98670058	     -0.00000000	      7.64925452	     -0.00000000
     15.00200000	      0.00000000	      0.00000000	      0.00000000	      0.00000000	      0.00000000	      0.00000000	      0.00000000	      0.00000000	      0.00000000	    140.07463868	    410.42416061	     22.20918360	      1.98128530	      0.00000000	      0.98688427	     -0.00000000	      7.55760849	     -0.00000000
     15.00300000	      0.00000000	      0.00000000	      0.00000000	      0.00000000	      0.00000000	      0.00000000	      0.00000000	      0.00000000	      0.00000000	    137.42744992	    394.75888232	     21.35959546	      1.97881988	      0.00000000	      0.98706796	     -0.00000000	      7.46596246	     -0.00000000
     15.00400000	      0.00000000	      0.00000000	      0.00000000	      0.00000000	      0.00000000	      0.00000000	      0.00000000	      0.00000000	      0.00000000	    134.54980861	    379.57126258	     20.53952329	      1.97643723	      0.00000000	      0.98725084	     -0.00000000	      7.38519454	     -0.00000000
     15.00500000	      0.00000000	      0.00000000	      0.00000000	      0.00000000	      0.00000000	      0.00000000	      0.00000000	      0.00000000	      0.00000000	    131.55694101	    364.62247212	     19.73420912	      1.97409596	      0.00000000	      0.98743332	     -0.00000000	      7.30986566	     -0.00000000
     15.00600000	      0.00000000	      0.00000000	      0.00000000	      0.00000000	      0.00000000	      0.00000000	      0.00000000	      0.00000000	      0.00000000	    128.56407340	    349.67368165	     18.92889495	      1.97175469	      0.00000000	      0.98761580	     -0.00000000	      7.23453678	     -0.00000000
     15.00700000	      0.00000000	      0.00000000	      0.00000000	      0.00000000	      0.00000000	      0.00000000	      0.00000000	      0.00000000	      0.00000000	    125.48079860	    334.99416294	     18.13974807	      1.96945746	      0.00000000	      0.98779716	     -0.00000000	      7.16497104	     -0.00000000
     15.00800000	      0.00000000	      0.00000000	      0.00000000	      0.00000000	      0.00000000	      0.00000000	      0.00000000	      0.00000000	      0.00000000	    122.21670939	    320.85318772	     17.38293577	      1.96724833	      0.00000000	      0.98797627	     -0.00000000	      7.10693159	     -0.00000000
     15.00900000	      0.00000000	      0.00000000	      0.00000000	      0.00000000	      0.00000000	      0.00000000	      0.00000000	      0.00000000	      0.00000000	    118.95262017	    306.71221250	     16.62612347	      1.96503921	      0.00000000	      0.98815538	     -0.00000000	      7.04889213	     -0.00000000
     15.01000000	      0.00000000	      0.00000000	      0.00000000	      0.00000000	      0.00000000	      0.00000000	      0.00000000	      0.00000000	      0.00000000	    115.68853096	    292.57123728	     15.86931117	      1.96283008	      0.00000000	      0.98833449	     -0.00000000	      6.99085268	     -0.00000000
     15.01100000	      0.00000000	      0.00000000	      0.00000000	      0.00000000	      0.00000000	      0.00000000	      0.00000000	      0.00000000	      0.00000000	    112.23134507	    279.31528513	     15.16405166	      1.96075982	      0.00000000	      0.98850817	     -0.00000000	      6.95039993	     -0.00000000
     15.01200000	      0.00000000	      0.00000000	      0.00000000	      0.00000000	      0.00000000	      0.00000000	      0.00000000	      0.00000000	      0.00000000	    108.77415918	    266.05933298	     14.45879215	      1.95868957	      0.00000000	      0.98868186	     -0.00000000	      6.90994719	     -0.00000000
     15.01300000	      0.00000000	      0.00000000	      0.00000000	      0.00000000	      0.00000000	      0.00000000	      0.00000000	      0.00000000	      0.00000000	    105.31697329	    252.80338083	     13.75353264	      1.95661932	      0.00000000	      0.98885554	     -0.00000000	      6.86949444	     -0.00000000
     15.01400000	      0.00000000	      0.00000000	      0.00000000	      0.00000000	      0.00000000	      0.00000000	      0.00000000	      0.00000000	      0.00000000	    101.78409804	    240.17870849	     13.08397774	      1.95464526	      0.00000000	      0.98902435	     -0.00000000	      6.84051401	     -0.00000000
     15.01500000	      0.00000000	      0.00000000	      0.00000000	      0.00000000	      0.00000000	      0.00000000	      0.00000000	      0.00000000	      0.00000000	     98.21337811	    227.86967605	     12.43227515	      1.95271931	      0.00000000	      0.98919072	     -0.00000000	      6.81726972	     -0.00000000
     15.01600000	      0.00000000	      0.00000000	      0.00000000	      0.00000000	      0.00000000	      0.00000000	      0.00000000	      0.00000000	      0.00000000	     94.64265818	    215.56064362	     11.78057256	      1.95079335	      0.00000000	      0.98935710	     -0.00000000	      6.79402544	     -0.00000000
     15.01700000	      0.00000000	      0.00000000	      0.00000000	      0.00000000	      0.00000000	      0.00000000	      0.00000000	      0.00000000	      0.00000000	     91.06032686	    203.58251975	     11.14708712	      1.94891686	      0.00000000	      0.98952047	     -0.00000000	      6.77617596	     -0.00000000
     15.01800000	      0.00000000	      0.00000000	      0.00000000	      0.00000000	      0.00000000	      0.00000000	      0.00000000	      0.00000000	      0.00000000	     87.45477275	    192.26621303	     10.55003600	      1.94713930	      0.00000000	      0.98967785	     -0.00000000	      6.76911610	     -0.00000000
     15.01900000	      0.00000000	      0.00000000	      0.00000000	      0.00000000	      0.00000000	      0.00000000	      0.00000000	      0.00000000	      0.00000000	     83.84921865	    180.94990631	      9.95298488	      1.94536174	      0.00000000	      0.98983523	     -0.00000000	      6.76205624	     -0.00000000
     15.02000000	      0.00000000	      0.00000000	      0.00000000	      0.00000000	      0.00000000	      0.00000000	      0.00000000	      0.00000000	      0.00000000	     80.24366454	    169.63359959	      9.35593376	      1.94358418	      0.00000000	      0.98999261	     -0.00000000	      6.75499638	     -0.00000000
     15.02100000	      0.00000000	      0.00000000	      0.00000000	      0.00000000	      0.00000000	      0.00000000	      0.00000000	      0.00000000	      0.00000000	     76.67882694	    159.33936966	      8.81384864	      1.94195775	      0.00000000	      0.99013956	     -0.00000000	      6.76251203	     -0.00000000
     15.02200000	      0.00000000	      0.00000000	      0.00000000	      0.00000000	      0.00000000	      0.00000000	      0.00000000	      0.00000000	      0.00000000	     73.11398935	    149.04513974	      8.27176353	      1.94033133	      0.00000000	      0.99028650	     -0.00000000	      6.77002767	     -0.00000000
     15.02300000	      0.00000000	      0.00000000	      0.00000000	      0.00000000	      0.00000000	      0.00000000	      0.00000000	      0.00000000	      0.00000000	     69.54915175	    138.75090981	      7.72967841	      1.93870490	      0.00000000	      0.99043345	     -0.00000000	      6.77754332	     -0.00000000
     15.02400000	      0.00000000	      0.00000000	      0.00000000	      0.00000000	      0.00000000	      0.00000000	      0.00000000	      0.00000000	      0.00000000	     66.05826704	    129.14668352	      7.22400175	      1.93718015	      0.00000000	      0.99057267	     -0.00000000	      6.79337439	     -0.00000000
     15.02500000	      0.00000000	      0.00000000	      0.00000000	      0.00000000	      0.00000000	      0.00000000	      0.00000000	      0.00000000	      0.00000000	     62.60435878	    119.88745905	      6.73652931	      1.93570625	      0.00000000	      0.99070803	     -0.00000000	      6.81336316	     -0.00000000
